<svg width="92" height="92" viewBox="0 0 92 92" fill="none" xmlns="http://www.w3.org/2000/svg">
<path d="M26.68 0H65.32C80.04 0 92 11.96 92 26.68V65.32C92 72.396 89.1891 79.1821 84.1856 84.1856C79.1821 89.1891 72.396 92 65.32 92H26.68C11.96 92 0 80.04 0 65.32V26.68C0 19.604 2.81092 12.8179 7.81439 7.81439C12.8179 2.81092 19.604 0 26.68 0ZM25.76 9.2C21.368 9.2 17.1559 10.9447 14.0503 14.0503C10.9447 17.1559 9.2 21.368 9.2 25.76V66.24C9.2 75.394 16.606 82.8 25.76 82.8H66.24C70.632 82.8 74.8441 81.0553 77.9497 77.9497C81.0553 74.8441 82.8 70.632 82.8 66.24V25.76C82.8 16.606 75.394 9.2 66.24 9.2H25.76ZM70.15 16.1C71.675 16.1 73.1375 16.7058 74.2159 17.7841C75.2942 18.8625 75.9 20.325 75.9 21.85C75.9 23.375 75.2942 24.8375 74.2159 25.9159C73.1375 26.9942 71.675 27.6 70.15 27.6C68.625 27.6 67.1625 26.9942 66.0841 25.9159C65.0058 24.8375 64.4 23.375 64.4 21.85C64.4 20.325 65.0058 18.8625 66.0841 17.7841C67.1625 16.7058 68.625 16.1 70.15 16.1ZM46 23C52.1 23 57.9501 25.4232 62.2635 29.7365C66.5768 34.0499 69 39.9 69 46C69 52.1 66.5768 57.9501 62.2635 62.2635C57.9501 66.5768 52.1 69 46 69C39.9 69 34.0499 66.5768 29.7365 62.2635C25.4232 57.9501 23 52.1 23 46C23 39.9 25.4232 34.0499 29.7365 29.7365C34.0499 25.4232 39.9 23 46 23ZM46 32.2C42.34 32.2 38.8299 33.6539 36.2419 36.2419C33.6539 38.8299 32.2 42.34 32.2 46C32.2 49.66 33.6539 53.1701 36.2419 55.7581C38.8299 58.3461 42.34 59.8 46 59.8C49.66 59.8 53.1701 58.3461 55.7581 55.7581C58.3461 53.1701 59.8 49.66 59.8 46C59.8 42.34 58.3461 38.8299 55.7581 36.2419C53.1701 33.6539 49.66 32.2 46 32.2Z" fill="white" fill-opacity="0.37"/>
</svg>
